<?xml version="1.0" encoding="iso-8859-1"?>
<!-- Uploaded to: SVG Repo, www.svgrepo.com, Transformed by: SVG Repo Mixer Tools -->
<svg height="30px" width="30px" version="1.1" id="Layer_1" xmlns="http://www.w3.org/2000/svg" xmlns:xlink="http://www.w3.org/1999/xlink" 
	 viewBox="0 0 512 512" xml:space="preserve">
<circle style="fill:#FF757C;" cx="256" cy="256" r="245.801"/>
<polygon style="fill:#F2F2F2;" points="395.561,164.038 347.961,116.44 256,208.401 164.039,116.44 116.439,164.038 208.401,256 
	116.439,347.962 164.039,395.56 256,303.599 347.961,395.56 395.561,347.962 303.599,256 "/>
<g>
	<path style="fill:#4D4D4D;" d="M256,512c-68.38,0-132.667-26.628-181.02-74.98S0,324.38,0,256S26.628,123.333,74.98,74.98
		S187.62,0,256,0s132.667,26.628,181.02,74.98S512,187.62,512,256s-26.628,132.667-74.98,181.02S324.38,512,256,512z M256,20.398
		C126.089,20.398,20.398,126.089,20.398,256S126.089,491.602,256,491.602S491.602,385.911,491.602,256S385.911,20.398,256,20.398z"
		/>
	<path style="fill:#4D4D4D;" d="M347.962,405.759c-2.61,0-5.221-0.996-7.212-2.987L256,318.022l-84.749,84.75
		c-3.983,3.982-10.441,3.982-14.425,0l-47.599-47.599c-3.983-3.983-3.983-10.441,0-14.425L193.978,256l-84.75-84.749
		c-3.983-3.983-3.983-10.441,0-14.425l47.599-47.599c3.983-3.982,10.441-3.982,14.425,0L256,193.978l84.749-84.75
		c3.983-3.982,10.441-3.982,14.425,0l47.599,47.599c3.983,3.983,3.983,10.441,0,14.425L318.022,256l84.75,84.749
		c3.983,3.983,3.983,10.441,0,14.425l-47.599,47.599C353.182,404.764,350.572,405.759,347.962,405.759z M256,293.399
		c2.61,0,5.221,0.996,7.212,2.987l84.749,84.75l33.175-33.175l-84.75-84.749c-3.983-3.983-3.983-10.441,0-14.425l84.75-84.749
		l-33.175-33.175l-84.749,84.75c-3.983,3.982-10.441,3.982-14.425,0l-84.749-84.75l-33.175,33.175l84.75,84.749
		c3.983,3.983,3.983,10.441,0,14.425l-84.75,84.749l33.175,33.175l84.749-84.75C250.779,294.396,253.39,293.399,256,293.399z"/>


</g>
</svg>