<?xml version="1.0" encoding="iso-8859-1"?>
<!-- Generator: Adobe Illustrator 19.0.0, SVG Export Plug-In . SVG Version: 6.00 Build 0)  -->
<svg xmlns="http://www.w3.org/2000/svg" xmlns:xlink="http://www.w3.org/1999/xlink" version="1.1" id="Layer_1" x="0px" y="0px" viewBox="0 0 502 502" style="enable-background:new 0 0 502 502;" xml:space="preserve" width="40" height="40">
<g>
	<g>
		<path style="fill:#CCD7EB;" d="M413,492H89c-43.63,0-79-35.37-79-79V89c0-43.63,35.37-79,79-79h324c43.63,0,79,35.37,79,79v324    C492,456.63,456.63,492,413,492z"/>
		<path d="M413,502H89c-49.075,0-89-39.925-89-89V89C0,39.925,39.925,0,89,0h324c49.075,0,89,39.925,89,89v324    C502,462.075,462.075,502,413,502z M89,20c-38.047,0-69,30.953-69,69v324c0,38.047,30.953,69,69,69h324c38.047,0,69-30.953,69-69    V89c0-38.047-30.953-69-69-69H89z"/>
	</g>
	<g>
		<path d="M423.167,56H403c-5.523,0-10-4.477-10-10s4.477-10,10-10h20.167c5.523,0,10,4.477,10,10S428.689,56,423.167,56z"/>
	</g>
	<g>
		<path d="M361,56H78.833c-5.523,0-10-4.477-10-10s4.477-10,10-10H361c5.523,0,10,4.477,10,10S366.523,56,361,56z"/>
	</g>
	<g>
		<g>
			<path style="fill:#4D93E8;" d="M189.208,397L189.208,397c-17.064,0-30.896-13.833-30.896-30.896V135.896     c0-17.064,13.833-30.896,30.896-30.896h0c17.064,0,30.896,13.833,30.896,30.896v230.208C220.104,383.167,206.271,397,189.208,397     z"/>
			<path d="M189.208,407c-22.55,0-40.896-18.346-40.896-40.896V135.896c0-22.55,18.346-40.896,40.896-40.896     s40.896,18.346,40.896,40.896v230.208C230.104,388.654,211.758,407,189.208,407z M189.208,115     c-11.522,0-20.896,9.374-20.896,20.896v230.208c0,11.522,9.374,20.896,20.896,20.896c11.522,0,20.896-9.374,20.896-20.896     V135.896C210.104,124.374,200.729,115,189.208,115z"/>
		</g>
		<g>
			<path style="fill:#4D93E8;" d="M312.793,397L312.793,397c-17.064,0-30.896-13.833-30.896-30.896V135.896     c0-17.064,13.833-30.896,30.896-30.896h0c17.064,0,30.896,13.833,30.896,30.896v230.208C343.689,383.167,329.856,397,312.793,397     z"/>
			<path d="M312.792,407c-22.55,0-40.896-18.346-40.896-40.896V135.896c0-22.55,18.346-40.896,40.896-40.896     s40.896,18.346,40.896,40.896v230.208C353.689,388.654,335.343,407,312.792,407z M312.792,115     c-11.522,0-20.896,9.374-20.896,20.896v230.208c0,11.522,9.374,20.896,20.896,20.896c11.522,0,20.896-9.374,20.896-20.896     V135.896C333.689,124.374,324.315,115,312.792,115z"/>
		</g>
	</g>
</g>















</svg>
